<svg width="30" height="30" viewBox="0 0 30 30" fill="none" xmlns="http://www.w3.org/2000/svg">
<g clip-path="url(#clip0_6008_154)">
<path d="M15.1121 5.66616C15.8444 4.93392 15.8444 3.74674 15.1121 3.01451C14.3799 2.28227 13.1927 2.28227 12.4605 3.01451L1.42612 14.0489C0.693896 14.7811 0.693896 15.9683 1.42612 16.7005L12.4605 27.7349C13.1927 28.4671 14.3799 28.4671 15.1121 27.7349C15.8444 27.0027 15.8444 25.8155 15.1121 25.0833L7.49422 17.4653L27.8149 17.4653C28.8504 17.4653 29.6899 16.6259 29.6899 15.5903C29.6899 14.5548 28.8504 13.7153 27.8149 13.7153L7.06297 13.7153L15.1121 5.66616Z" fill="#323232"/>
</g>
<defs>
<clipPath id="clip0_6008_154">
<rect width="30" height="30" fill="white" transform="translate(0.00195312)"/>
</clipPath>
</defs>
</svg>
