<svg width="40" height="40" viewBox="0 0 40 40" fill="none" xmlns="http://www.w3.org/2000/svg">
<path d="M35.381 32.7566C37.4341 30.2885 38.862 27.3626 39.544 24.2264C40.226 21.0903 40.142 17.8361 39.299 14.7393C38.4561 11.6424 36.8791 8.79397 34.7014 6.43488C32.5237 4.07579 29.8094 2.27547 26.7881 1.18621C23.7668 0.096948 20.5273 -0.249206 17.3438 0.177031C14.1602 0.603268 11.1263 1.78936 8.49852 3.63496C5.87079 5.48056 3.72659 7.93138 2.24731 10.7801C0.768031 13.6288 -0.00280571 16.7916 7.67355e-06 20.0009C0.00120946 24.6664 1.64664 29.1824 4.64761 32.7566L4.61902 32.7809C4.71909 32.9009 4.83346 33.0037 4.93639 33.1223C5.06505 33.2694 5.20372 33.408 5.33668 33.5508C5.73506 33.986 6.14964 34.4002 6.58042 34.7935C6.71385 34.9116 6.84728 35.0268 6.98071 35.1392C7.43818 35.5344 7.90994 35.9067 8.396 36.2562C8.45891 36.2991 8.51609 36.3548 8.57899 36.3991V36.3819C11.9272 38.7364 15.9215 40 20.0157 40C24.11 40 28.1043 38.7364 31.4525 36.3819V36.3991C31.5154 36.3548 31.5711 36.2991 31.6355 36.2562C32.1215 35.9058 32.5933 35.5335 33.0508 35.1392C33.1842 35.0259 33.3176 34.9107 33.451 34.7935C33.8809 34.4002 34.2955 33.986 34.6948 33.5508C34.8277 33.408 34.965 33.2694 35.0951 33.1223C35.1966 33.0037 35.3124 32.9009 35.4124 32.7795L35.381 32.7566ZM20.0143 8.57367C21.2867 8.57367 22.5305 8.95066 23.5884 9.65696C24.6463 10.3633 25.4709 11.3671 25.9578 12.5417C26.4447 13.7162 26.5721 15.0086 26.3239 16.2555C26.0756 17.5024 25.4629 18.6477 24.5632 19.5467C23.6635 20.4456 22.5173 21.0578 21.2694 21.3058C20.0214 21.5539 18.7279 21.4266 17.5524 20.9401C16.3769 20.4535 15.3722 19.6297 14.6653 18.5726C13.9584 17.5156 13.5811 16.2728 13.5811 15.0015C13.5811 13.2967 14.2589 11.6618 15.4654 10.4563C16.6718 9.25089 18.3081 8.57367 20.0143 8.57367ZM8.58757 32.7566C8.61237 30.8811 9.3752 29.0907 10.711 27.7728C12.0469 26.4549 13.8483 25.7155 15.7255 25.7146H24.3031C26.1803 25.7155 27.9818 26.4549 29.3176 27.7728C30.6534 29.0907 31.4162 30.8811 31.441 32.7566C28.3057 35.5796 24.2348 37.1419 20.0143 37.1419C15.7938 37.1419 11.7229 35.5796 8.58757 32.7566Z" fill="#D0D0D0"/>
</svg>
