<svg width="15" height="15" viewBox="0 0 15 15" fill="none" xmlns="http://www.w3.org/2000/svg">
<path fill-rule="evenodd" clip-rule="evenodd" d="M6.84075 14.6953C6.63461 14.5613 6.42097 14.4406 6.201 14.3338C5.65125 14.0655 4.91775 13.8131 4.125 13.8131C3.16575 13.8131 2.2965 14.1834 1.74 14.4952C1.5644 14.5923 1.36862 14.6418 1.17035 14.639C0.972085 14.6362 0.777601 14.5814 0.6045 14.4793C0.422446 14.3762 0.270178 14.2231 0.163777 14.0362C0.0573766 13.8493 0.000792188 13.6356 0 13.4175V3.52744C0 3.03609 0.22125 2.52814 0.6735 2.23856C1.254 1.86669 2.5605 1.15381 4.125 1.15381C5.31075 1.15381 6.48375 1.55733 7.5 2.19029C8.51625 1.55733 9.68925 1.15381 10.875 1.15381C12.4395 1.15381 13.746 1.8659 14.3265 2.23856C14.7787 2.52814 15 3.03609 15 3.52744V13.4175C15 13.9184 14.7157 14.2926 14.3955 14.4793C14.2223 14.5815 14.0277 14.6365 13.8293 14.6392C13.6309 14.642 13.4349 14.5925 13.2593 14.4952C12.7035 14.1834 11.8343 13.8131 10.875 13.8131C10.0822 13.8131 9.34875 14.0663 8.799 14.3338C8.57903 14.4406 8.36539 14.5613 8.15925 14.6953C7.94625 14.8354 7.76625 15 7.50075 15C7.23375 15 7.0545 14.8354 6.84075 14.6953ZM1.5 12.859V3.56067C2.00475 3.24418 3 2.73623 4.125 2.73623C5.0475 2.73623 5.961 3.06695 6.75 3.56067V12.859C6.08625 12.5456 5.16525 12.2307 4.125 12.2307C3.08925 12.2307 2.16825 12.5433 1.5 12.859ZM8.25 12.859C8.91375 12.5456 9.83475 12.2307 10.875 12.2307C11.9108 12.2307 12.8317 12.5433 13.5 12.859V3.56067C12.9952 3.24418 12 2.73623 10.875 2.73623C9.9525 2.73623 9.039 3.06695 8.25 3.56067V12.859Z" fill="#4B4B4B"/>
</svg>
