<svg width="20" height="20" viewBox="0 0 20 20" fill="none" xmlns="http://www.w3.org/2000/svg">
<path d="M9.6 19.2C14.9019 19.2 19.2 14.9019 19.2 9.6C19.2 4.29807 14.9019 0 9.6 0C4.29807 0 0 4.29807 0 9.6C0 14.9019 4.29807 19.2 9.6 19.2Z" fill="#58CC02"/>
<path fill-rule="evenodd" clip-rule="evenodd" d="M8.53459 10.3414L6.79875 8.60546C6.26796 8.07466 5.40739 8.07466 4.8766 8.60546C4.34582 9.13626 4.34582 9.99682 4.8766 10.5276L7.52696 13.1779C7.80308 13.4541 8.16843 13.5866 8.53019 13.5754C8.89475 13.5889 9.26371 13.4566 9.54195 13.1783L14.3204 8.39978C14.8512 7.86906 14.8512 7.00846 14.3204 6.47768C13.7896 5.94689 12.9291 5.94689 12.3983 6.47768L8.53459 10.3414Z" fill="white"/>
</svg>
