<svg width="20" height="20" viewBox="0 0 20 20" fill="none" xmlns="http://www.w3.org/2000/svg">
<path d="M17.7778 11.1111V17.7778C17.7778 18.3671 17.5437 18.9324 17.1269 19.3491C16.7102 19.7659 16.1449 20 15.5556 20H2.22222C1.63285 20 1.06762 19.7659 0.650874 19.3491C0.234126 18.9324 0 18.3671 0 17.7778V4.44444C0 3.85507 0.234126 3.28984 0.650874 2.8731C1.06762 2.45635 1.63285 2.22222 2.22222 2.22222H8.88889V4.44444H2.22222V17.7778H15.5556V11.1111H17.7778ZM11.1111 0V2.22222H16.2067L7.54778 10.8811L9.11889 12.4522L17.7778 3.79333V8.88889H20V0H11.1111Z" fill="#4B4B4B"/>
</svg>
