<svg width="16" height="17" viewBox="0 0 16 17" fill="none" xmlns="http://www.w3.org/2000/svg">
<path d="M1.65764 0H9.11702C9.55666 0 9.97828 0.174644 10.2892 0.485512C10.6 0.79638 10.7747 1.21801 10.7747 1.65764V3.31528H9.11702V1.65764H1.65764V14.9188H9.11702V13.2611H10.7747V14.9188C10.7747 15.3584 10.6 15.78 10.2892 16.0909C9.97828 16.4018 9.55666 16.5764 9.11702 16.5764H1.65764C1.21801 16.5764 0.79638 16.4018 0.485512 16.0909C0.174644 15.78 0 15.3584 0 14.9188V1.65764C0 1.21801 0.174644 0.79638 0.485512 0.485512C0.79638 0.174644 1.21801 0 1.65764 0Z" fill="#8E8E8E"/>
<path d="M10.0209 11.2631L11.1895 12.4318L15.3336 8.28766L11.1895 4.14355L10.0209 5.31219L12.1592 7.45884H4.14453V9.11648H12.1592L10.0209 11.2631Z" fill="#8E8E8E"/>
</svg>
