<svg width="21" height="21" viewBox="0 0 21 21" fill="none" xmlns="http://www.w3.org/2000/svg">
<path d="M9.44344 9.44588L4.16602 4.16846" stroke="#4B4B4B" stroke-width="1.58323"/>
<path d="M3.11219 5.75196L5.75091 3.11325L2.58445 1.53002L1.52897 2.58551L3.11219 5.75196ZM18.9181 7.3088C19.4248 6.80251 19.7735 6.1598 19.9215 5.45893C20.0695 4.75806 20.0106 4.02927 19.7519 3.36129L18.251 4.86219H16.14V2.75122L17.6409 1.25032C16.9729 0.991029 16.2439 0.931626 15.5427 1.07935C14.8415 1.22707 14.1984 1.57554 13.6918 2.0823C13.1851 2.58905 12.8368 3.23223 12.6892 3.93346C12.5417 4.63468 12.6012 5.36369 12.8607 6.03167L6.03167 12.8617C5.36369 12.6023 4.63468 12.5427 3.93346 12.6903C3.23223 12.8378 2.58905 13.1862 2.0823 13.6928C1.57554 14.1995 1.22707 14.8426 1.07935 15.5438C0.931626 16.245 0.991029 16.974 1.25032 17.642L2.75016 16.1411H4.86113V18.2521L3.36023 19.753C4.0281 20.0123 4.75694 20.0718 5.45802 19.9242C6.15909 19.7767 6.80213 19.4284 7.30883 18.922C7.81554 18.4155 8.16404 17.7726 8.31189 17.0716C8.45974 16.3706 8.40057 15.6417 8.14158 14.9737L14.9727 8.14264C15.6404 8.40089 16.3688 8.45958 17.0692 8.31154C17.7696 8.16351 18.412 7.81514 18.9181 7.3088Z" stroke="#4B4B4B" stroke-width="1.58323" stroke-linejoin="round"/>
<path d="M10.2871 13.1406L16.202 19.0555C16.3344 19.1881 16.4916 19.2933 16.6647 19.3651C16.8377 19.4369 17.0232 19.4738 17.2106 19.4738C17.3979 19.4738 17.5834 19.4369 17.7565 19.3651C17.9295 19.2933 18.0867 19.1881 18.2191 19.0555L19.055 18.2196C19.1876 18.0872 19.2928 17.93 19.3646 17.757C19.4364 17.5839 19.4733 17.3984 19.4733 17.2111C19.4733 17.0237 19.4364 16.8382 19.3646 16.6651C19.2928 16.4921 19.1876 16.3349 19.055 16.2025L13.1401 10.2876" stroke="#4B4B4B" stroke-width="1.58323" stroke-linejoin="round"/>
</svg>
