<svg width="22" height="22" viewBox="0 0 22 22" fill="none" xmlns="http://www.w3.org/2000/svg">
<path fill-rule="evenodd" clip-rule="evenodd" d="M9.7857 2.207e-08C8.22514 0.000132972 6.68724 0.373459 5.30031 1.08883C3.91338 1.8042 2.71763 2.84088 1.81283 4.11236C0.908025 5.38385 0.320407 6.85328 0.0989997 8.39805C-0.122408 9.94282 0.0288142 11.5181 0.54005 12.9926C1.05129 14.467 1.90771 15.7978 3.03787 16.874C4.16803 17.9501 5.53916 18.7404 7.03685 19.1788C8.53455 19.6173 10.1154 19.6913 11.6475 19.3945C13.1796 19.0978 14.6185 18.4389 15.8441 17.473L20.0489 21.6777C20.266 21.8875 20.5569 22.0035 20.8588 22.0009C21.1606 21.9983 21.4494 21.8772 21.6629 21.6637C21.8764 21.4503 21.9974 21.1615 22.0001 20.8596C22.0027 20.5577 21.8866 20.2669 21.6769 20.0497L17.4722 15.845C18.6097 14.4019 19.318 12.6677 19.5159 10.8409C19.7139 9.01403 19.3935 7.16837 18.5915 5.51511C17.7895 3.86184 16.5383 2.46777 14.981 1.49242C13.4237 0.517082 11.6232 -0.00012336 9.7857 2.207e-08ZM2.30188 9.78653C2.30188 7.8017 3.09035 5.89816 4.49384 4.49467C5.89733 3.09119 7.80087 2.30271 9.7857 2.30271C11.7705 2.30271 13.6741 3.09119 15.0776 4.49467C16.4811 5.89816 17.2695 7.8017 17.2695 9.78653C17.2695 11.7714 16.4811 13.6749 15.0776 15.0784C13.6741 16.4819 11.7705 17.2704 9.7857 17.2704C7.80087 17.2704 5.89733 16.4819 4.49384 15.0784C3.09035 13.6749 2.30188 11.7714 2.30188 9.78653Z" fill="#AFAFAF"/>
</svg>
